ply
format ascii 1.0
comment Created as a sample point cloud for testing
element vertex 100
property float x
property float y
property float z
property uchar red
property uchar green
property uchar blue
end_header
0.0 0.0 0.0 255 0 0
0.1 0.0 0.0 255 10 10
0.2 0.0 0.0 255 20 20
0.3 0.0 0.0 255 30 30
0.4 0.0 0.0 255 40 40
0.5 0.0 0.0 255 50 50
0.6 0.0 0.0 255 60 60
0.7 0.0 0.0 255 70 70
0.8 0.0 0.0 255 80 80
0.9 0.0 0.0 255 90 90
0.0 0.1 0.0 245 0 10
0.1 0.1 0.0 245 10 20
0.2 0.1 0.0 245 20 30
0.3 0.1 0.0 245 30 40
0.4 0.1 0.0 245 40 50
0.5 0.1 0.0 245 50 60
0.6 0.1 0.0 245 60 70
0.7 0.1 0.0 245 70 80
0.8 0.1 0.0 245 80 90
0.9 0.1 0.0 245 90 100
0.0 0.2 0.0 235 0 20
0.1 0.2 0.0 235 10 30
0.2 0.2 0.0 235 20 40
0.3 0.2 0.0 235 30 50
0.4 0.2 0.0 235 40 60
0.5 0.2 0.0 235 50 70
0.6 0.2 0.0 235 60 80
0.7 0.2 0.0 235 70 90
0.8 0.2 0.0 235 80 100
0.9 0.2 0.0 235 90 110
0.0 0.3 0.0 225 0 30
0.1 0.3 0.0 225 10 40
0.2 0.3 0.0 225 20 50
0.3 0.3 0.0 225 30 60
0.4 0.3 0.0 225 40 70
0.5 0.3 0.0 225 50 80
0.6 0.3 0.0 225 60 90
0.7 0.3 0.0 225 70 100
0.8 0.3 0.0 225 80 110
0.9 0.3 0.0 225 90 120
0.0 0.4 0.0 215 0 40
0.1 0.4 0.0 215 10 50
0.2 0.4 0.0 215 20 60
0.3 0.4 0.0 215 30 70
0.4 0.4 0.0 215 40 80
0.5 0.4 0.0 215 50 90
0.6 0.4 0.0 215 60 100
0.7 0.4 0.0 215 70 110
0.8 0.4 0.0 215 80 120
0.9 0.4 0.0 215 90 130
0.0 0.0 0.1 205 0 50
0.1 0.0 0.1 205 10 60
0.2 0.0 0.1 205 20 70
0.3 0.0 0.1 205 30 80
0.4 0.0 0.1 205 40 90
0.5 0.0 0.1 205 50 100
0.6 0.0 0.1 205 60 110
0.7 0.0 0.1 205 70 120
0.8 0.0 0.1 205 80 130
0.9 0.0 0.1 205 90 140
0.0 0.1 0.1 195 0 60
0.1 0.1 0.1 195 10 70
0.2 0.1 0.1 195 20 80
0.3 0.1 0.1 195 30 90
0.4 0.1 0.1 195 40 100
0.5 0.1 0.1 195 50 110
0.6 0.1 0.1 195 60 120
0.7 0.1 0.1 195 70 130
0.8 0.1 0.1 195 80 140
0.9 0.1 0.1 195 90 150
0.0 0.2 0.1 185 0 70
0.1 0.2 0.1 185 10 80
0.2 0.2 0.1 185 20 90
0.3 0.2 0.1 185 30 100
0.4 0.2 0.1 185 40 110
0.5 0.2 0.1 185 50 120
0.6 0.2 0.1 185 60 130
0.7 0.2 0.1 185 70 140
0.8 0.2 0.1 185 80 150
0.9 0.2 0.1 185 90 160
0.0 0.3 0.1 175 0 80
0.1 0.3 0.1 175 10 90
0.2 0.3 0.1 175 20 100
0.3 0.3 0.1 175 30 110
0.4 0.3 0.1 175 40 120
0.5 0.3 0.1 175 50 130
0.6 0.3 0.1 175 60 140
0.7 0.3 0.1 175 70 150
0.8 0.3 0.1 175 80 160
0.9 0.3 0.1 175 90 170
0.0 0.4 0.1 165 0 90
0.1 0.4 0.1 165 10 100
0.2 0.4 0.1 165 20 110
0.3 0.4 0.1 165 30 120
0.4 0.4 0.1 165 40 130
0.5 0.4 0.1 165 50 140
0.6 0.4 0.1 165 60 150
0.7 0.4 0.1 165 70 160
0.8 0.4 0.1 165 80 170
0.9 0.4 0.1 165 90 180